<svg xmlns="http://www.w3.org/2000/svg" viewBox="0 0 32 32"><path d="M28 1c1.654 0 3 1.346 3 3v24c0 1.654-1.346 3-3 3H4c-1.654 0-3-1.346-3-3V4c0-1.654 1.346-3 3-3h24m0-1H4C1.8 0 0 1.8 0 4v24c0 2.2 1.8 4 4 4h24c2.2 0 4-1.8 4-4V4c0-2.2-1.8-4-4-4z"/><path d="M7.199 13.212s1.605-1.265 2.14-.633c.535.633 2.576 8.268 3.258 9.676.595 1.235 2.236 2.868 4.035 1.702 1.798-1.166 7.78-6.272 8.85-12.302 1.07-6.028-7.197-4.766-8.072.487 2.189-1.314 3.357.533 2.237 2.626-1.118 2.09-2.14 3.453-2.674 3.453-.534 0-.945-1.399-1.556-3.844-.632-2.527-.629-7.08-3.257-6.564-2.48.487-5.738 4.378-5.738 4.378l.777 1.021z"/></svg>